<svg width="56" height="57" viewBox="0 0 56 57" fill="none" xmlns="http://www.w3.org/2000/svg">
<g clip-path="url(#clip0_1_2150)">
<path d="M46.6667 37.7893C46.5225 37.9343 46.3512 38.0493 46.1624 38.1278C45.9737 38.2063 45.7713 38.2467 45.5669 38.2467C45.3625 38.2467 45.1601 38.2063 44.9713 38.1278C44.7826 38.0493 44.6112 37.9343 44.4671 37.7893L42.2676 35.5898C42.1226 35.4456 42.0076 35.2743 41.9291 35.0855C41.8506 34.8968 41.8102 34.6944 41.8102 34.49C41.8102 34.2856 41.8506 34.0832 41.9291 33.8944C42.0076 33.7057 42.1226 33.5343 42.2676 33.3902L46.6667 28.9911C46.811 28.8465 46.9824 28.7318 47.1711 28.6535C47.3599 28.5753 47.5622 28.535 47.7664 28.535C47.9707 28.535 48.173 28.5753 48.3617 28.6535C48.5505 28.7318 48.7219 28.8465 48.8662 28.9911L51.0658 31.1906C51.2107 31.3348 51.3258 31.5061 51.4043 31.6949C51.4828 31.8836 51.5232 32.086 51.5232 32.2904C51.5232 32.4948 51.4828 32.6972 51.4043 32.886C51.3258 33.0747 51.2107 33.2461 51.0658 33.3902L46.6667 37.7893ZM23.3333 14.456C23.1892 14.6009 23.0178 14.716 22.8291 14.7945C22.6404 14.873 22.438 14.9134 22.2336 14.9134C22.0291 14.9134 21.8267 14.873 21.638 14.7945C21.4493 14.716 21.2779 14.6009 21.1338 14.456L18.9342 12.2564C18.7893 12.1123 18.6742 11.9409 18.5957 11.7522C18.5172 11.5634 18.4768 11.3611 18.4768 11.1566C18.4768 10.9522 18.5172 10.7498 18.5957 10.5611C18.6742 10.3724 18.7893 10.201 18.9342 10.0569L23.3333 5.65775C23.4777 5.51317 23.6491 5.39847 23.8378 5.3202C24.0265 5.24194 24.2288 5.20166 24.4331 5.20166C24.6374 5.20166 24.8397 5.24194 25.0284 5.3202C25.2171 5.39847 25.3886 5.51317 25.5329 5.65775L27.7324 7.85731C27.8774 8.00143 27.9924 8.1728 28.0709 8.36154C28.1494 8.55028 28.1898 8.75267 28.1898 8.95708C28.1898 9.1615 28.1494 9.36389 28.0709 9.55263C27.9924 9.74137 27.8774 9.91273 27.7324 10.0569L23.3333 14.456Z" fill="#66757F"/>
<path d="M3.11111 34.9457C6.22222 34.9457 20.2222 36.5012 20.2222 36.5012C20.2222 36.5012 21.7778 50.5012 21.7778 53.6123C21.7778 56.7234 18.6667 56.7234 17.1111 55.1679C15.5556 53.6123 10.8889 45.8346 10.8889 45.8346C10.8889 45.8346 3.11111 41.1679 1.55556 39.6123C7.7486e-07 38.0568 7.7486e-07 34.9457 3.11111 34.9457ZM6.22222 10.1175C10.8889 10.0568 45.1111 11.6123 45.1111 11.6123C45.1111 11.6123 46.5484 45.8346 46.6076 50.5012C46.6667 55.1679 42.3096 56.7266 40.6 50.5028C38.8904 44.279 32.6667 24.0568 32.6667 24.0568C32.6667 24.0568 10.9589 17.1859 6.21444 16.1203C5.36442e-07 14.7235 1.554 10.1766 6.22222 10.1175Z" fill="#55ACEE"/>
<path d="M42 5.39031C45.1111 2.2792 52.8889 0.723642 54.4444 2.2792C56 3.83475 54.4444 11.6125 51.3333 14.7236C48.2222 17.8348 21.7778 42.7236 21.7778 42.7236C21.7778 42.7236 11.6667 49.7236 9.33334 47.3903C7 45.057 14 34.9459 14 34.9459C14 34.9459 38.8889 8.50142 42 5.39031Z" fill="#CCD6DD"/>
<path d="M21.7778 34.9457C21.7778 34.9457 22.5556 35.7235 15.5556 42.7235C8.55556 49.7235 7.77779 48.9457 7.77779 48.9457C7.77779 48.9457 7.00001 48.1679 14 41.1679C21 34.1679 21.7778 34.9457 21.7778 34.9457ZM45.1111 6.94569C46.3488 6.94569 47.5358 7.43736 48.411 8.31253C49.2861 9.1877 49.7778 10.3747 49.7778 11.6124H51.03C51.2073 11.1224 51.3333 10.609 51.3333 10.0568C51.3333 8.81913 50.8417 7.63214 49.9665 6.75697C49.0913 5.8818 47.9044 5.39014 46.6667 5.39014C46.1145 5.39014 45.6011 5.51614 45.1111 5.69347V6.94569Z" fill="#66757F"/>
</g>
<defs>
<clipPath id="clip0_1_2150">
<rect width="56" height="56" fill="white" transform="translate(0 0.723633)"/>
</clipPath>
</defs>
</svg>
